<svg id="Layer_1" data-name="Layer 1" xmlns="http://www.w3.org/2000/svg" viewBox="0 0 92.02 93.02"><defs><style>.cls-1{fill:#969696;fill-rule:evenodd;}</style></defs><title>Artboard 1</title><path class="cls-1" d="M88.51,41.94,41.93,88.53a12,12,0,0,1-15.72,1.06l-4.63-3.53h0a7.68,7.68,0,0,1-.74.41l-.16.08c-.24.12-.48.23-.73.33l-.2.07-.58.2c-.1,0-.2.07-.3.09l-.59.16-.34.07-.63.11-.37,0-.43,0-.53,0h-.8l-.64,0-.32,0-.68-.1-.24-.06-.59-.14-.21-.06q-.36-.1-.72-.24l-.2-.07-.73-.31-.13-.07c-.24-.11-.47-.24-.71-.37a.1.1,0,0,1-.05,0,6.76,6.76,0,0,1-.72-.46l-.13-.08-.67-.52L8.3,85c-.23-.19-.44-.39-.66-.6S7.23,84,7,83.72l-.1-.11c-.18-.22-.35-.44-.51-.67l-.09-.13c-.16-.23-.32-.47-.46-.71l0-.06c-.14-.23-.26-.47-.38-.71l-.06-.13c-.12-.24-.22-.49-.32-.73,0-.07,0-.13-.07-.2q-.13-.36-.24-.72l-.06-.2c0-.2-.1-.4-.14-.6a2,2,0,0,1,0-.24c0-.22-.08-.45-.11-.68s0-.21,0-.32,0-.43,0-.65,0-.23,0-.35,0-.3,0-.44,0-.36,0-.53,0-.29,0-.43,0-.25,0-.38.07-.41.11-.62,0-.23.07-.34.1-.4.16-.59.06-.21.09-.3.13-.39.2-.58.05-.14.08-.2c.1-.25.21-.49.32-.73l.08-.16c.13-.25.26-.5.41-.75,0,0,0,0,0,0L2.44,65.81A12,12,0,0,1,3.49,50.08L50.07,3.49A12,12,0,0,1,65.79,2.43L70.42,6l0,0a8,8,0,0,1,.76-.41l.15-.08a6.73,6.73,0,0,1,.73-.32l.19-.08.59-.2.29-.09.6-.16.34-.07.63-.11.36,0,.45,0,.51,0h.8l.65,0,.32,0c.23,0,.46.06.68.11l.23,0,.6.14.21.06q.36.1.72.24l.2.07.73.31.13.07c.24.11.47.24.71.37l0,0a6.76,6.76,0,0,1,.72.46l.13.09c.22.16.45.33.67.51l.11.1.66.6q.31.32.6.66l.1.11c.18.22.35.44.51.67l.09.13c.16.23.32.47.46.72l0,.05c.14.24.26.47.38.71a.54.54,0,0,0,.07.13c.11.24.21.49.31.73,0,.07,0,.13.07.2q.13.36.24.72l.06.21c0,.19.1.39.14.6a1.55,1.55,0,0,1,0,.23c0,.22.08.45.11.68s0,.21,0,.32,0,.43,0,.65,0,.23,0,.35,0,.3,0,.45,0,.34,0,.52,0,.29,0,.44,0,.24,0,.36-.07.42-.11.63,0,.23-.07.34-.1.41-.16.6l-.09.29c-.06.2-.13.39-.21.59a1.46,1.46,0,0,1-.07.19c-.1.25-.21.49-.32.74,0,0-.05.1-.08.15-.13.25-.27.5-.41.75l0,0,3.53,4.64A12,12,0,0,1,88.51,41.94ZM63.71,5.16a8.56,8.56,0,0,0-11.21.76L5.92,52.51a8.59,8.59,0,0,0-.76,11.22l3.06,4L67.71,8.22ZM84.25,15.57c0-.19,0-.38,0-.57s0-.14,0-.2,0-.35-.08-.52,0-.16,0-.24L84,13.56l-.07-.25c0-.15-.1-.3-.16-.44l-.1-.27c-.06-.14-.13-.28-.19-.41l-.14-.28c-.07-.13-.15-.26-.23-.39l-.16-.26c-.09-.14-.2-.27-.3-.41s-.1-.14-.16-.2a7.15,7.15,0,0,0-1.1-1.1,1.66,1.66,0,0,0-.21-.16,3.79,3.79,0,0,0-.4-.3l-.26-.16-.39-.23-.28-.14-.41-.19-.27-.1-.44-.16L78.43,8c-.15,0-.31-.08-.47-.12l-.24,0L77.2,7.8l-.2,0c-.19,0-.38,0-.57,0h-.16c-.21,0-.41,0-.62,0h-.12q-.33,0-.66.09l-.08,0a6.09,6.09,0,0,0-.71.17h0a9.46,9.46,0,0,0-1.41.57l-.29.18L72,9c-.13.08-.25.18-.37.27l-.3.21,0,0a7.23,7.23,0,0,0-.59.53L10.07,70.73a7.23,7.23,0,0,0-.53.59l0,0-.22.3c-.09.12-.18.24-.26.37s-.14.24-.21.36-.11.18-.16.28a8.2,8.2,0,0,0-.58,1.41h0a6.25,6.25,0,0,0-.17.72.19.19,0,0,0,0,.08,5,5,0,0,0-.1.66.49.49,0,0,0,0,.12c0,.21,0,.41,0,.62v.16c0,.19,0,.38,0,.57a1.36,1.36,0,0,1,0,.2c0,.18,0,.35.08.53s0,.15,0,.23l.12.48.07.25c.05.15.1.3.16.44s.07.19.1.28.13.27.19.41l.14.27c.07.13.15.26.23.39l.16.26c.09.14.2.27.3.41s.1.14.16.2a7.15,7.15,0,0,0,1.1,1.1c.06.06.14.11.2.16s.27.21.41.3l.26.16.39.23.28.14.41.19a1.69,1.69,0,0,0,.27.1l.44.16.25.07a4.21,4.21,0,0,0,.48.12l.23,0a4.85,4.85,0,0,0,.53.08l.2,0c.19,0,.38,0,.57,0h.16c.21,0,.41,0,.62,0h.12q.33,0,.66-.09l.08,0a6.25,6.25,0,0,0,.72-.17h0a9.46,9.46,0,0,0,1.41-.57l.28-.17c.12-.07.24-.13.36-.21l.37-.26.3-.22,0,0c.2-.17.4-.35.59-.54L81.93,21.29a5.88,5.88,0,0,0,.53-.59l0,0,.21-.29c.09-.13.19-.25.27-.38l.2-.34.18-.3a8.12,8.12,0,0,0,.56-1.41v0a5.65,5.65,0,0,0,.17-.71.22.22,0,0,0,0-.08c0-.22.08-.44.1-.66,0,0,0-.08,0-.12,0-.21,0-.41,0-.62ZM86.84,28.3l-3.06-4L24.29,83.81l4,3a8.57,8.57,0,0,0,11.21-.75l46.58-46.6a8.55,8.55,0,0,0,.75-11.21Zm-18.77-1a11.67,11.67,0,0,1-5.71,3.15C55.79,32,54,38.71,54,38.78c-.09.31-2.13,7.08-8.6,8.59-5.71,1.34-7.67,7.66-7.69,7.72-.12.33-2.64,7.28-8.73,8.7-5.36,1.26-7.25,7.25-7.27,7.31a.67.67,0,0,1-.82.44.65.65,0,0,1-.44-.82c.08-.28,2.12-6.78,8.23-8.21C34,61.28,36.37,55,36.49,54.7c.15-.5,2.28-7.12,8.64-8.61,5.73-1.34,7.61-7.59,7.63-7.66.07-.28,2-7.56,9.3-9.28C68.62,27.62,70.23,21,70.25,21a.66.66,0,1,1,1.28.3A13.75,13.75,0,0,1,68.07,27.28Z"/></svg>